<svg xmlns="http://www.w3.org/2000/svg" width="1400" height="420" viewBox="0 0 1400 420" role="img" aria-labelledby="title desc">
  <title id="title">Planora — Build, Compare, Share</title>
  <desc id="desc">Purple and blue calendar grid with an orange accent beside the Planora name</desc>
  <defs>
    <linearGradient id="bg" x1="0" y1="0" x2="1" y2="1"><stop stop-color="#101229"/><stop offset="1" stop-color="#17143A"/></linearGradient>
    <linearGradient id="grid" x1="0" y1="0" x2="1" y2="1"><stop stop-color="#6D5EF6"/><stop offset="1" stop-color="#3B82F6"/></linearGradient>
  </defs>
  <rect width="1400" height="420" rx="32" fill="url(#bg)"/>
  <rect x="2" y="2" width="1396" height="416" rx="30" fill="none" stroke="#6256BA" stroke-opacity=".55" stroke-width="3"/>
  <rect x="116" y="100" width="220" height="220" rx="54" fill="url(#grid)"/>
  <rect x="155" y="154" width="142" height="125" rx="22" fill="#101229" fill-opacity=".85"/>
  <path d="M180 140v37m91-37v37" stroke="#C3CDFF" stroke-width="20" stroke-linecap="round"/>
  <g fill="#887BFC"><rect x="175" y="180" width="32" height="32" rx="7"/><rect x="219" y="180" width="32" height="32" rx="7"/><rect x="175" y="224" width="32" height="32" rx="7"/><rect x="263" y="224" width="32" height="32" rx="7"/></g>
  <rect x="263" y="180" width="32" height="32" rx="7" fill="#FFB14A"/>
  <rect x="219" y="224" width="32" height="32" rx="7" fill="#B597FF"/>
  <text x="390" y="210" fill="#F8FAFC" font-family="Inter,Segoe UI,sans-serif" font-size="102" font-weight="800" letter-spacing="-3">Planora</text>
  <text x="398" y="258" fill="#BBB9E7" font-family="Inter,Segoe UI,sans-serif" font-size="22" font-weight="600" letter-spacing="5">BUILD · COMPARE · SHARE</text>
  <text x="399" y="311" fill="#C4C3DC" font-family="Inter,Segoe UI,sans-serif" font-size="20">Independent student schedule planner · Fall 2026</text>
</svg>
